<?xml version="1.0" encoding="utf-8"?>
<!-- Generator: Adobe Illustrator 23.0.4, SVG Export Plug-In . SVG Version: 6.00 Build 0)  -->
<svg version="1.1" id="Layer_1" xmlns="http://www.w3.org/2000/svg" xmlns:xlink="http://www.w3.org/1999/xlink" x="0px" y="0px"
	 viewBox="0 0 453.2 512" style="enable-background:new 0 0 453.2 512;" xml:space="preserve">
<style type="text/css">
	.st0{fill:#FFFFFF;}
</style>
<path class="st0" d="M226.6,0C91.3,0,0,40.6,0,176.3C0,315.6,145.5,512,226.6,512c81.8,0,226.6-197.3,226.6-335.7
	C453.2,41.1,362.3,0,226.6,0z M299.6,126.3h-21.5c-21.2,0-27.8,13.2-27.8,26.7v32h47.3l-7.6,49.3h-39.8v119.3h-53.3V234.3h-43.3V185
	h43.3v-37.6c0-42.8,25.5-66.4,64.5-66.4c18.7,0,38.2,3.3,38.2,3.3V126.3z"/>
</svg>
