<?xml version="1.0" encoding="utf-8"?>
<!-- Generator: Adobe Illustrator 23.0.4, SVG Export Plug-In . SVG Version: 6.00 Build 0)  -->
<svg version="1.1" id="Layer_1" xmlns="http://www.w3.org/2000/svg" xmlns:xlink="http://www.w3.org/1999/xlink" x="0px" y="0px"
	 viewBox="0 0 453.2 512" style="enable-background:new 0 0 453.2 512;" xml:space="preserve">
<style type="text/css">
	.st0{fill:#FFFFFF;}
</style>
<path class="st0" d="M226.6,0C91.3,0,0,40.6,0,176.3C0,315.6,145.5,512,226.6,512c81.8,0,226.6-197.3,226.6-335.7
	C453.2,41.1,362.3,0,226.6,0z M341.4,153.2c0.2,2.6,0.2,5.1,0.2,7.7c0,78.3-59.6,168.6-168.6,168.6c-33.6,0-64.7-9.7-91-26.6
	c4.8,0.5,9.4,0.7,14.3,0.7c27.7,0,53.2-9.4,73.6-25.3c-26-0.6-47.9-17.6-55.4-41.1c3.7,0.5,7.3,0.9,11.2,0.9c5.3,0,10.6-0.7,15.6-2
	c-27.1-5.5-47.5-29.3-47.5-58.1v-0.7c7.9,4.4,17.1,7.2,26.8,7.5c-16-10.6-26.4-28.8-26.4-49.3c0-11,2.9-21.1,8.1-29.9
	c29.2,36,73,59.4,122.2,62c-0.9-4.4-1.5-9-1.5-13.6c0-32.6,26.4-59.2,59.2-59.2c17.1,0,32.5,7.2,43.3,18.7
	c13.4-2.6,26.2-7.5,37.6-14.3c-4.4,13.8-13.8,25.3-26,32.6c11.9-1.3,23.5-4.6,34.1-9.2C363.1,134.3,353,144.7,341.4,153.2z"/>
</svg>
