<?xml version="1.0" encoding="utf-8"?>
<!-- Generator: Adobe Illustrator 23.0.4, SVG Export Plug-In . SVG Version: 6.00 Build 0)  -->
<svg version="1.1" id="Layer_1" xmlns="http://www.w3.org/2000/svg" xmlns:xlink="http://www.w3.org/1999/xlink" x="0px" y="0px"
	 viewBox="0 0 453.2 512" style="enable-background:new 0 0 453.2 512;" xml:space="preserve">
<style type="text/css">
	.st0{fill:#FFFFFF;}
</style>
<g>
	<path class="st0" d="M323.6,130c-4.4-10.9-12.8-19.3-23.6-23.6c-16.3-6.4-55.2-5-73.3-5c-18.1,0-56.9-1.5-73.3,5
		c-10.9,4.4-19.3,12.8-23.6,23.6c-6.4,16.3-5,55.2-5,73.3c0,18.1-1.5,56.9,5,73.3c4.4,10.9,12.8,19.3,23.6,23.6
		c16.3,6.4,55.2,5,73.3,5c18.1,0,56.9,1.5,73.3-5c10.9-4.4,19.3-12.8,23.6-23.6c6.5-16.3,5-55.2,5-73.3
		C328.6,185.2,330.1,146.3,323.6,130z M226.6,267c-35.3,0-63.7-28.5-63.7-63.7c0-35.3,28.5-63.7,63.7-63.7s63.7,28.5,63.7,63.7
		C290.4,238.6,261.9,267,226.6,267z M293,151.8c-8.3,0-14.9-6.7-14.9-14.9c0-8.2,6.7-14.9,14.9-14.9s14.9,6.7,14.9,14.9
		C307.9,145.2,301.2,151.8,293,151.8z"/>
	<path class="st0" d="M226.6,0C91.3,0,0,40.6,0,176.3C0,315.6,145.5,512,226.6,512c81.8,0,226.6-197.3,226.6-335.7
		C453.2,41.1,362.3,0,226.6,0z M350.1,254.5c-1,19.9-5.5,37.6-20.1,52.1c-14.5,14.6-32.2,19.1-52.1,20.1c-20.5,1.2-82.1,1.2-102.6,0
		c-19.9-1-37.5-5.5-52.1-20.1s-19.1-32.2-20.1-52.1c-1.2-20.5-1.2-82.1,0-102.6c1-19.9,5.5-37.6,20.1-52.1
		c14.6-14.5,32.2-19.1,52.1-20c20.5-1.2,82.1-1.2,102.6,0c19.9,1,37.6,5.5,52.1,20.1c14.6,14.5,19.1,32.2,20.1,52.1
		C351.2,172.5,351.2,234,350.1,254.5z"/>
	
		<ellipse transform="matrix(0.9571 -0.2898 0.2898 0.9571 -49.1782 74.3969)" class="st0" cx="226.6" cy="203.3" rx="41.4" ry="41.4"/>
</g>
</svg>
