<?xml version="1.0" encoding="utf-8"?>
<!-- Generator: Adobe Illustrator 23.0.4, SVG Export Plug-In . SVG Version: 6.00 Build 0)  -->
<svg version="1.1" id="_x2014_ÎÓÈ_x5F_1" xmlns="http://www.w3.org/2000/svg" xmlns:xlink="http://www.w3.org/1999/xlink"
	 x="0px" y="0px" viewBox="0 0 133 30.9" style="enable-background:new 0 0 133 30.9;" xml:space="preserve">
<style type="text/css">
	.st0{fill:#666666;}
	.st1{fill:#66CCCB;}
</style>
<rect y="14" width="0.8" height="0.4"/>
<rect y="16.5" class="st0" width="0.8" height="0.4"/>
<rect x="2" y="14" width="0.8" height="0.4"/>
<rect x="2" y="12.7" width="0.8" height="0.4"/>
<rect x="2" y="11.4" width="0.8" height="0.4"/>
<rect x="2" y="16.5" class="st0" width="0.8" height="0.4"/>
<rect x="2" y="17.8" class="st0" width="0.8" height="0.4"/>
<rect x="2" y="19.1" class="st0" width="0.8" height="0.4"/>
<rect x="4" y="14" width="0.8" height="0.4"/>
<rect x="4" y="16.5" class="st0" width="0.8" height="0.4"/>
<rect x="6" y="14" width="0.8" height="0.4"/>
<rect x="6" y="12.7" width="0.8" height="0.4"/>
<rect x="6" y="11.4" width="0.8" height="0.4"/>
<rect x="6" y="10.2" width="0.8" height="0.4"/>
<rect x="6" y="8.9" width="0.8" height="0.4"/>
<rect x="6" y="16.5" class="st0" width="0.8" height="0.4"/>
<rect x="6" y="17.8" class="st0" width="0.8" height="0.4"/>
<rect x="6" y="19.1" class="st0" width="0.8" height="0.4"/>
<rect x="6" y="20.3" class="st0" width="0.8" height="0.4"/>
<rect x="6" y="21.6" class="st0" width="0.8" height="0.4"/>
<rect x="8" y="14" width="0.8" height="0.4"/>
<rect x="8" y="12.7" width="0.8" height="0.4"/>
<rect x="8" y="11.4" width="0.8" height="0.4"/>
<rect x="8" y="10.2" width="0.8" height="0.4"/>
<rect x="8" y="8.9" width="0.8" height="0.4"/>
<rect x="8" y="7.6" width="0.8" height="0.4"/>
<rect x="8" y="6.4" width="0.8" height="0.4"/>
<rect x="8" y="16.5" class="st0" width="0.8" height="0.4"/>
<rect x="8" y="17.8" class="st0" width="0.8" height="0.4"/>
<rect x="8" y="19.1" class="st0" width="0.8" height="0.4"/>
<rect x="8" y="20.3" class="st0" width="0.8" height="0.4"/>
<rect x="8" y="21.6" class="st0" width="0.8" height="0.4"/>
<rect x="8" y="22.9" class="st0" width="0.8" height="0.4"/>
<rect x="8" y="24.1" class="st0" width="0.8" height="0.4"/>
<rect x="10" y="14" width="0.8" height="0.4"/>
<rect x="10" y="12.7" width="0.8" height="0.4"/>
<rect x="10" y="11.4" width="0.8" height="0.4"/>
<rect x="10" y="10.2" width="0.8" height="0.4"/>
<rect x="10" y="16.5" class="st0" width="0.8" height="0.4"/>
<rect x="10" y="17.8" class="st0" width="0.8" height="0.4"/>
<rect x="10" y="19.1" class="st0" width="0.8" height="0.4"/>
<rect x="10" y="20.3" class="st0" width="0.8" height="0.4"/>
<rect x="12" y="14" width="0.8" height="0.4"/>
<rect x="12" y="12.7" width="0.8" height="0.4"/>
<rect x="12" y="16.5" class="st0" width="0.8" height="0.4"/>
<rect x="12" y="17.8" class="st0" width="0.8" height="0.4"/>
<rect x="14" y="14" width="0.8" height="0.4"/>
<rect x="14" y="12.7" width="0.8" height="0.4"/>
<rect x="14" y="11.4" width="0.8" height="0.4"/>
<rect x="14" y="10.2" width="0.8" height="0.4"/>
<rect x="14" y="8.9" width="0.8" height="0.4"/>
<rect x="14" y="7.6" width="0.8" height="0.4"/>
<rect x="14" y="16.5" class="st0" width="0.8" height="0.4"/>
<rect x="14" y="17.8" class="st0" width="0.8" height="0.4"/>
<rect x="14" y="19.1" class="st0" width="0.8" height="0.4"/>
<rect x="14" y="20.3" class="st0" width="0.8" height="0.4"/>
<rect x="14" y="21.6" class="st0" width="0.8" height="0.4"/>
<rect x="14" y="22.9" class="st0" width="0.8" height="0.4"/>
<rect x="16" y="14" width="0.8" height="0.4"/>
<rect x="16" y="12.7" width="0.8" height="0.4"/>
<rect x="16" y="11.4" width="0.8" height="0.4"/>
<rect x="16" y="16.5" class="st0" width="0.8" height="0.4"/>
<rect x="16" y="17.8" class="st0" width="0.8" height="0.4"/>
<rect x="16" y="19.1" class="st0" width="0.8" height="0.4"/>
<rect x="18" y="14" width="0.8" height="0.4"/>
<rect x="18" y="16.5" class="st0" width="0.8" height="0.4"/>
<rect x="20" y="14" width="0.8" height="0.4"/>
<rect x="20" y="12.7" width="0.8" height="0.4"/>
<rect x="20" y="11.4" width="0.8" height="0.4"/>
<rect x="20" y="16.5" class="st0" width="0.8" height="0.4"/>
<rect x="20" y="17.8" class="st0" width="0.8" height="0.4"/>
<rect x="20" y="19.1" class="st0" width="0.8" height="0.4"/>
<rect x="22" y="14" width="0.8" height="0.4"/>
<rect x="22" y="12.7" width="0.8" height="0.4"/>
<rect x="22" y="11.4" width="0.8" height="0.4"/>
<rect x="22" y="10.2" width="0.8" height="0.4"/>
<rect x="22" y="8.9" width="0.8" height="0.4"/>
<rect x="22" y="7.6" width="0.8" height="0.4"/>
<rect x="22" y="16.5" class="st0" width="0.8" height="0.4"/>
<rect x="22" y="17.8" class="st0" width="0.8" height="0.4"/>
<rect x="22" y="19.1" class="st0" width="0.8" height="0.4"/>
<rect x="22" y="20.3" class="st0" width="0.8" height="0.4"/>
<rect x="22" y="21.6" class="st0" width="0.8" height="0.4"/>
<rect x="22" y="22.9" class="st0" width="0.8" height="0.4"/>
<rect x="24" y="14" width="0.8" height="0.4"/>
<rect x="24" y="12.7" width="0.8" height="0.4"/>
<rect x="24" y="11.4" width="0.8" height="0.4"/>
<rect x="24" y="10.2" width="0.8" height="0.4"/>
<rect x="24" y="16.5" class="st0" width="0.8" height="0.4"/>
<rect x="24" y="17.8" class="st0" width="0.8" height="0.4"/>
<rect x="24" y="19.1" class="st0" width="0.8" height="0.4"/>
<rect x="24" y="20.3" class="st0" width="0.8" height="0.4"/>
<rect x="26" y="14" width="0.8" height="0.4"/>
<rect x="26" y="16.5" class="st0" width="0.8" height="0.4"/>
<rect x="28" y="14" width="0.8" height="0.4"/>
<rect x="28" y="12.7" width="0.8" height="0.4"/>
<rect x="28" y="16.5" class="st0" width="0.8" height="0.4"/>
<rect x="28" y="17.8" class="st0" width="0.8" height="0.4"/>
<rect x="30" y="14" width="0.8" height="0.4"/>
<rect x="30" y="12.7" width="0.8" height="0.4"/>
<rect x="30" y="11.4" width="0.8" height="0.4"/>
<rect x="30" y="10.2" width="0.8" height="0.4"/>
<rect x="30" y="16.5" class="st0" width="0.8" height="0.4"/>
<rect x="30" y="17.8" class="st0" width="0.8" height="0.4"/>
<rect x="30" y="19.1" class="st0" width="0.8" height="0.4"/>
<rect x="30" y="20.3" class="st0" width="0.8" height="0.4"/>
<rect x="36" y="14" width="0.8" height="0.4"/>
<rect x="36" y="12.7" width="0.8" height="0.4"/>
<rect x="36" y="16.5" class="st0" width="0.8" height="0.4"/>
<rect x="36" y="17.8" class="st0" width="0.8" height="0.4"/>
<rect x="38.1" y="14" width="0.8" height="0.4"/>
<rect x="38.1" y="12.7" width="0.8" height="0.4"/>
<rect x="38.1" y="11.4" width="0.8" height="0.4"/>
<rect x="38.1" y="10.2" width="0.8" height="0.4"/>
<rect x="38.1" y="16.5" class="st0" width="0.8" height="0.4"/>
<rect x="38.1" y="17.8" class="st0" width="0.8" height="0.4"/>
<rect x="38.1" y="19.1" class="st0" width="0.8" height="0.4"/>
<rect x="38.1" y="20.3" class="st0" width="0.8" height="0.4"/>
<rect x="40.1" y="14" width="0.8" height="0.4"/>
<rect x="40.1" y="12.7" width="0.8" height="0.4"/>
<rect x="40.1" y="11.4" width="0.8" height="0.4"/>
<rect x="40.1" y="10.2" width="0.8" height="0.4"/>
<rect x="40.1" y="8.9" width="0.8" height="0.4"/>
<rect x="40.1" y="7.6" width="0.8" height="0.4"/>
<rect x="40.1" y="6.4" width="0.8" height="0.4"/>
<rect x="40.1" y="5.1" width="0.8" height="0.4"/>
<rect x="40.1" y="16.5" class="st0" width="0.8" height="0.4"/>
<rect x="40.1" y="17.8" class="st0" width="0.8" height="0.4"/>
<rect x="40.1" y="19.1" class="st0" width="0.8" height="0.4"/>
<rect x="40.1" y="20.3" class="st0" width="0.8" height="0.4"/>
<rect x="40.1" y="21.6" class="st0" width="0.8" height="0.4"/>
<rect x="40.1" y="22.9" class="st0" width="0.8" height="0.4"/>
<rect x="40.1" y="24.1" class="st0" width="0.8" height="0.4"/>
<rect x="40.1" y="25.4" class="st0" width="0.8" height="0.4"/>
<rect x="42.1" y="14" width="0.8" height="0.4"/>
<rect x="42.1" y="12.7" width="0.8" height="0.4"/>
<rect x="42.1" y="11.4" width="0.8" height="0.4"/>
<rect x="42.1" y="10.2" width="0.8" height="0.4"/>
<rect x="42.1" y="8.9" width="0.8" height="0.4"/>
<rect x="42.1" y="7.6" width="0.8" height="0.4"/>
<rect x="42.1" y="16.5" class="st0" width="0.8" height="0.4"/>
<rect x="42.1" y="17.8" class="st0" width="0.8" height="0.4"/>
<rect x="42.1" y="19.1" class="st0" width="0.8" height="0.4"/>
<rect x="42.1" y="20.3" class="st0" width="0.8" height="0.4"/>
<rect x="42.1" y="21.6" class="st0" width="0.8" height="0.4"/>
<rect x="42.1" y="22.9" class="st0" width="0.8" height="0.4"/>
<rect x="44.1" y="14" width="0.8" height="0.4"/>
<rect x="44.1" y="12.7" width="0.8" height="0.4"/>
<rect x="44.1" y="11.4" width="0.8" height="0.4"/>
<rect x="44.1" y="16.5" class="st0" width="0.8" height="0.4"/>
<rect x="44.1" y="17.8" class="st0" width="0.8" height="0.4"/>
<rect x="44.1" y="19.1" class="st0" width="0.8" height="0.4"/>
<rect x="46.1" y="14" width="0.8" height="0.4"/>
<rect x="46.1" y="16.5" class="st0" width="0.8" height="0.4"/>
<rect x="48.1" y="14" width="0.8" height="0.4"/>
<rect x="48.1" y="12.7" width="0.8" height="0.4"/>
<rect x="48.1" y="16.5" class="st0" width="0.8" height="0.4"/>
<rect x="48.1" y="17.8" class="st0" width="0.8" height="0.4"/>
<rect x="50.1" y="14" width="0.8" height="0.4"/>
<rect x="50.1" y="12.7" width="0.8" height="0.4"/>
<rect x="50.1" y="11.4" width="0.8" height="0.4"/>
<rect x="50.1" y="10.2" width="0.8" height="0.4"/>
<rect x="50.1" y="16.5" class="st0" width="0.8" height="0.4"/>
<rect x="50.1" y="17.8" class="st0" width="0.8" height="0.4"/>
<rect x="50.1" y="19.1" class="st0" width="0.8" height="0.4"/>
<rect x="50.1" y="20.3" class="st0" width="0.8" height="0.4"/>
<rect x="52.1" y="14" width="0.8" height="0.4"/>
<rect x="52.1" y="12.7" width="0.8" height="0.4"/>
<rect x="52.1" y="11.4" width="0.8" height="0.4"/>
<rect x="52.1" y="10.2" width="0.8" height="0.4"/>
<rect x="52.1" y="8.9" width="0.8" height="0.4"/>
<rect x="52.1" y="7.6" width="0.8" height="0.4"/>
<rect x="52.1" y="6.4" width="0.8" height="0.4"/>
<rect x="52.1" y="16.5" class="st0" width="0.8" height="0.4"/>
<rect x="52.1" y="17.8" class="st0" width="0.8" height="0.4"/>
<rect x="52.1" y="19.1" class="st0" width="0.8" height="0.4"/>
<rect x="52.1" y="20.3" class="st0" width="0.8" height="0.4"/>
<rect x="52.1" y="21.6" class="st0" width="0.8" height="0.4"/>
<rect x="52.1" y="22.9" class="st0" width="0.8" height="0.4"/>
<rect x="52.1" y="24.1" class="st0" width="0.8" height="0.4"/>
<rect x="54.1" y="14" width="0.8" height="0.4"/>
<rect x="54.1" y="12.7" width="0.8" height="0.4"/>
<rect x="54.1" y="11.4" width="0.8" height="0.4"/>
<rect x="54.1" y="10.2" width="0.8" height="0.4"/>
<rect x="54.1" y="8.9" width="0.8" height="0.4"/>
<rect x="54.1" y="16.5" class="st0" width="0.8" height="0.4"/>
<rect x="54.1" y="17.8" class="st0" width="0.8" height="0.4"/>
<rect x="54.1" y="19.1" class="st0" width="0.8" height="0.4"/>
<rect x="54.1" y="20.3" class="st0" width="0.8" height="0.4"/>
<rect x="54.1" y="21.6" class="st0" width="0.8" height="0.4"/>
<rect x="56.1" y="14" width="0.8" height="0.4"/>
<rect x="56.1" y="12.7" width="0.8" height="0.4"/>
<rect x="56.1" y="11.4" width="0.8" height="0.4"/>
<rect x="56.1" y="16.5" class="st0" width="0.8" height="0.4"/>
<rect x="56.1" y="17.8" class="st0" width="0.8" height="0.4"/>
<rect x="56.1" y="19.1" class="st0" width="0.8" height="0.4"/>
<rect x="58.1" y="14" width="0.8" height="0.4"/>
<rect x="58.1" y="12.7" width="0.8" height="0.4"/>
<rect x="58.1" y="11.4" width="0.8" height="0.4"/>
<rect x="58.1" y="10.2" width="0.8" height="0.4"/>
<rect x="58.1" y="8.9" width="0.8" height="0.4"/>
<rect x="58.1" y="7.6" width="0.8" height="0.4"/>
<rect x="58.1" y="6.4" width="0.8" height="0.4"/>
<rect x="58.1" y="16.5" class="st0" width="0.8" height="0.4"/>
<rect x="58.1" y="17.8" class="st0" width="0.8" height="0.4"/>
<rect x="58.1" y="19.1" class="st0" width="0.8" height="0.4"/>
<rect x="58.1" y="20.3" class="st0" width="0.8" height="0.4"/>
<rect x="58.1" y="21.6" class="st0" width="0.8" height="0.4"/>
<rect x="58.1" y="22.9" class="st0" width="0.8" height="0.4"/>
<rect x="58.1" y="24.1" class="st0" width="0.8" height="0.4"/>
<rect x="60.1" y="14" width="0.8" height="0.4"/>
<rect x="60.1" y="12.7" width="0.8" height="0.4"/>
<rect x="60.1" y="11.4" width="0.8" height="0.4"/>
<rect x="60.1" y="10.2" width="0.8" height="0.4"/>
<rect x="60.1" y="8.9" width="0.8" height="0.4"/>
<rect x="60.1" y="7.6" width="0.8" height="0.4"/>
<rect x="60.1" y="6.4" width="0.8" height="0.4"/>
<rect x="60.1" y="5.1" width="0.8" height="0.4"/>
<rect x="60.1" y="3.8" width="0.8" height="0.4"/>
<rect x="60.1" y="2.5" width="0.8" height="0.4"/>
<rect x="60.1" y="1.3" width="0.8" height="0.4"/>
<rect x="60.1" width="0.8" height="0.4"/>
<rect x="60.1" y="16.5" class="st0" width="0.8" height="0.4"/>
<rect x="60.1" y="17.8" class="st0" width="0.8" height="0.4"/>
<rect x="60.1" y="19.1" class="st0" width="0.8" height="0.4"/>
<rect x="60.1" y="20.3" class="st0" width="0.8" height="0.4"/>
<rect x="60.1" y="21.6" class="st0" width="0.8" height="0.4"/>
<rect x="60.1" y="22.9" class="st0" width="0.8" height="0.4"/>
<rect x="60.1" y="24.1" class="st0" width="0.8" height="0.4"/>
<rect x="60.1" y="25.4" class="st0" width="0.8" height="0.4"/>
<rect x="60.1" y="26.7" class="st0" width="0.8" height="0.4"/>
<rect x="60.1" y="28" class="st0" width="0.8" height="0.4"/>
<rect x="60.1" y="29.2" class="st0" width="0.8" height="0.4"/>
<rect x="60.1" y="30.5" class="st0" width="0.8" height="0.4"/>
<rect x="62.1" y="14" width="0.8" height="0.4"/>
<rect x="62.1" y="12.7" width="0.8" height="0.4"/>
<rect x="62.1" y="11.4" width="0.8" height="0.4"/>
<rect x="62.1" y="10.2" width="0.8" height="0.4"/>
<rect x="62.1" y="8.9" width="0.8" height="0.4"/>
<rect x="62.1" y="7.6" width="0.8" height="0.4"/>
<rect x="62.1" y="6.4" width="0.8" height="0.4"/>
<rect x="62.1" y="5.1" width="0.8" height="0.4"/>
<rect x="62.1" y="3.8" width="0.8" height="0.4"/>
<rect x="62.1" y="16.5" class="st0" width="0.8" height="0.4"/>
<rect x="62.1" y="17.8" class="st0" width="0.8" height="0.4"/>
<rect x="62.1" y="19.1" class="st0" width="0.8" height="0.4"/>
<rect x="62.1" y="20.3" class="st0" width="0.8" height="0.4"/>
<rect x="62.1" y="21.6" class="st0" width="0.8" height="0.4"/>
<rect x="62.1" y="22.9" class="st0" width="0.8" height="0.4"/>
<rect x="62.1" y="24.1" class="st0" width="0.8" height="0.4"/>
<rect x="62.1" y="25.4" class="st0" width="0.8" height="0.4"/>
<rect x="62.1" y="26.7" class="st0" width="0.8" height="0.4"/>
<rect x="64.1" y="14" width="0.8" height="0.4"/>
<rect x="64.1" y="12.7" width="0.8" height="0.4"/>
<rect x="64.1" y="11.4" width="0.8" height="0.4"/>
<rect x="64.1" y="10.2" width="0.8" height="0.4"/>
<rect x="64.1" y="16.5" class="st0" width="0.8" height="0.4"/>
<rect x="64.1" y="17.8" class="st0" width="0.8" height="0.4"/>
<rect x="64.1" y="19.1" class="st0" width="0.8" height="0.4"/>
<rect x="64.1" y="20.3" class="st0" width="0.8" height="0.4"/>
<rect x="66.1" y="14" width="0.8" height="0.4"/>
<rect x="66.1" y="12.7" width="0.8" height="0.4"/>
<rect x="66.1" y="16.5" class="st0" width="0.8" height="0.4"/>
<rect x="66.1" y="17.8" class="st0" width="0.8" height="0.4"/>
<rect x="68.1" y="14" width="0.8" height="0.4"/>
<rect x="68.1" y="12.7" width="0.8" height="0.4"/>
<rect x="68.1" y="11.4" width="0.8" height="0.4"/>
<rect x="68.1" y="16.5" class="st0" width="0.8" height="0.4"/>
<rect x="68.1" y="17.8" class="st0" width="0.8" height="0.4"/>
<rect x="68.1" y="19.1" class="st0" width="0.8" height="0.4"/>
<rect x="70.1" y="14" width="0.8" height="0.4"/>
<rect x="70.1" y="12.7" width="0.8" height="0.4"/>
<rect x="70.1" y="11.4" width="0.8" height="0.4"/>
<rect x="70.1" y="10.2" width="0.8" height="0.4"/>
<rect x="70.1" y="9.1" width="0.8" height="0.4"/>
<rect x="70.1" y="16.5" class="st0" width="0.8" height="0.4"/>
<rect x="70.1" y="17.8" class="st0" width="0.8" height="0.4"/>
<rect x="70.1" y="19.1" class="st0" width="0.8" height="0.4"/>
<rect x="70.1" y="20.3" class="st0" width="0.8" height="0.4"/>
<rect x="70.1" y="21.4" class="st0" width="0.8" height="0.4"/>
<rect x="72.1" y="14" width="0.8" height="0.4"/>
<rect x="72.1" y="16.5" class="st0" width="0.8" height="0.4"/>
<g>
	<rect x="74.1" y="16.5" class="st0" width="0.8" height="0.4"/>
</g>
<g>
	<rect x="74.1" y="17.8" class="st0" width="0.8" height="0.4"/>
</g>
<g>
	<rect x="74.1" y="14" width="0.8" height="0.4"/>
</g>
<g>
	<rect x="74.1" y="12.7" width="0.8" height="0.4"/>
</g>
<rect x="76.1" y="14" width="0.8" height="0.4"/>
<rect x="76.1" y="16.5" class="st0" width="0.8" height="0.4"/>
<rect x="78.1" y="14" width="0.8" height="0.4"/>
<rect x="78.1" y="12.7" width="0.8" height="0.4"/>
<rect x="78.1" y="11.4" width="0.8" height="0.4"/>
<rect x="78.1" y="10.2" width="0.8" height="0.4"/>
<rect x="78.1" y="16.5" class="st0" width="0.8" height="0.4"/>
<rect x="78.1" y="17.8" class="st0" width="0.8" height="0.4"/>
<rect x="78.1" y="19.1" class="st0" width="0.8" height="0.4"/>
<rect x="78.1" y="20.3" class="st0" width="0.8" height="0.4"/>
<rect x="80.1" y="14" width="0.8" height="0.4"/>
<rect x="80.1" y="12.7" width="0.8" height="0.4"/>
<rect x="80.1" y="11.4" width="0.8" height="0.4"/>
<rect x="80.1" y="10.2" width="0.8" height="0.4"/>
<rect x="80.1" y="8.9" width="0.8" height="0.4"/>
<rect x="80.1" y="7.6" width="0.8" height="0.4"/>
<rect x="80.1" y="6.4" width="0.8" height="0.4"/>
<rect x="80.1" y="5.1" width="0.8" height="0.4"/>
<rect x="80.1" y="16.5" class="st0" width="0.8" height="0.4"/>
<rect x="80.1" y="17.8" class="st0" width="0.8" height="0.4"/>
<rect x="80.1" y="19.1" class="st0" width="0.8" height="0.4"/>
<rect x="80.1" y="20.3" class="st0" width="0.8" height="0.4"/>
<rect x="80.1" y="21.6" class="st0" width="0.8" height="0.4"/>
<rect x="80.1" y="22.9" class="st0" width="0.8" height="0.4"/>
<rect x="80.1" y="24.1" class="st0" width="0.8" height="0.4"/>
<rect x="80.1" y="25.4" class="st0" width="0.8" height="0.4"/>
<rect x="82.1" y="14" width="0.8" height="0.4"/>
<rect x="82.1" y="12.7" width="0.8" height="0.4"/>
<rect x="82.1" y="11.4" width="0.8" height="0.4"/>
<rect x="82.1" y="16.5" class="st0" width="0.8" height="0.4"/>
<rect x="82.1" y="17.8" class="st0" width="0.8" height="0.4"/>
<rect x="82.1" y="19.1" class="st0" width="0.8" height="0.4"/>
<rect x="84.1" y="14" width="0.8" height="0.4"/>
<rect x="84.1" y="12.7" width="0.8" height="0.4"/>
<rect x="84.1" y="11.4" width="0.8" height="0.4"/>
<rect x="84.1" y="10.2" width="0.8" height="0.4"/>
<rect x="84.1" y="8.9" width="0.8" height="0.4"/>
<rect x="84.1" y="16.5" class="st0" width="0.8" height="0.4"/>
<rect x="84.1" y="17.8" class="st0" width="0.8" height="0.4"/>
<rect x="84.1" y="19.1" class="st0" width="0.8" height="0.4"/>
<rect x="84.1" y="20.3" class="st0" width="0.8" height="0.4"/>
<rect x="84.1" y="21.6" class="st0" width="0.8" height="0.4"/>
<rect x="86.1" y="14" width="0.8" height="0.4"/>
<rect x="86.1" y="12.7" width="0.8" height="0.4"/>
<rect x="86.1" y="16.5" class="st0" width="0.8" height="0.4"/>
<rect x="86.1" y="17.8" class="st0" width="0.8" height="0.4"/>
<rect x="92.1" y="14" width="0.8" height="0.4"/>
<rect x="92.1" y="16.5" class="st0" width="0.8" height="0.4"/>
<rect x="94.1" y="14" width="0.8" height="0.4"/>
<rect x="94.1" y="12.7" width="0.8" height="0.4"/>
<rect x="94.1" y="11.4" width="0.8" height="0.4"/>
<rect x="94.1" y="16.5" class="st0" width="0.8" height="0.4"/>
<rect x="94.1" y="17.8" class="st0" width="0.8" height="0.4"/>
<rect x="94.1" y="19.1" class="st0" width="0.8" height="0.4"/>
<rect x="96.1" y="14" width="0.8" height="0.4"/>
<rect x="96.1" y="12.7" width="0.8" height="0.4"/>
<rect x="96.1" y="11.4" width="0.8" height="0.4"/>
<rect x="96.1" y="10.2" width="0.8" height="0.4"/>
<rect x="96.1" y="8.9" width="0.8" height="0.4"/>
<rect x="96.1" y="16.5" class="st0" width="0.8" height="0.4"/>
<rect x="96.1" y="17.8" class="st0" width="0.8" height="0.4"/>
<rect x="96.1" y="19.1" class="st0" width="0.8" height="0.4"/>
<rect x="96.1" y="20.3" class="st0" width="0.8" height="0.4"/>
<rect x="96.1" y="21.6" class="st0" width="0.8" height="0.4"/>
<rect x="98.1" y="14" width="0.8" height="0.4"/>
<rect x="98.1" y="12.7" width="0.8" height="0.4"/>
<rect x="98.1" y="16.5" class="st0" width="0.8" height="0.4"/>
<rect x="98.1" y="17.8" class="st0" width="0.8" height="0.4"/>
<rect x="100.1" y="14" width="0.8" height="0.4"/>
<rect x="100.1" y="12.7" width="0.8" height="0.4"/>
<rect x="100.1" y="11.4" width="0.8" height="0.4"/>
<rect x="100.1" y="10.2" width="0.8" height="0.4"/>
<rect x="100.1" y="8.9" width="0.8" height="0.4"/>
<rect x="100.1" y="7.6" width="0.8" height="0.4"/>
<rect x="100.1" y="6.4" width="0.8" height="0.4"/>
<rect x="100.1" y="5.1" width="0.8" height="0.4"/>
<rect x="100.1" y="16.5" class="st0" width="0.8" height="0.4"/>
<rect x="100.1" y="17.8" class="st0" width="0.8" height="0.4"/>
<rect x="100.1" y="19.1" class="st0" width="0.8" height="0.4"/>
<rect x="100.1" y="20.3" class="st0" width="0.8" height="0.4"/>
<rect x="100.1" y="21.6" class="st0" width="0.8" height="0.4"/>
<rect x="100.1" y="22.9" class="st0" width="0.8" height="0.4"/>
<rect x="100.1" y="24.1" class="st0" width="0.8" height="0.4"/>
<rect x="100.1" y="25.4" class="st0" width="0.8" height="0.4"/>
<rect x="102.1" y="14" width="0.8" height="0.4"/>
<rect x="102.1" y="12.7" width="0.8" height="0.4"/>
<rect x="102.1" y="11.4" width="0.8" height="0.4"/>
<rect x="102.1" y="10.2" width="0.8" height="0.4"/>
<rect x="102.1" y="8.9" width="0.8" height="0.4"/>
<rect x="102.1" y="7.6" width="0.8" height="0.4"/>
<rect x="102.1" y="16.5" class="st0" width="0.8" height="0.4"/>
<rect x="102.1" y="17.8" class="st0" width="0.8" height="0.4"/>
<rect x="102.1" y="19.1" class="st0" width="0.8" height="0.4"/>
<rect x="102.1" y="20.3" class="st0" width="0.8" height="0.4"/>
<rect x="102.1" y="21.6" class="st0" width="0.8" height="0.4"/>
<rect x="102.1" y="22.9" class="st0" width="0.8" height="0.4"/>
<rect x="104.1" y="14" width="0.8" height="0.4"/>
<rect x="104.1" y="12.7" width="0.8" height="0.4"/>
<rect x="104.1" y="11.4" width="0.8" height="0.4"/>
<rect x="104.1" y="10.2" width="0.8" height="0.4"/>
<rect x="104.1" y="8.9" width="0.8" height="0.4"/>
<rect x="104.1" y="7.6" width="0.8" height="0.4"/>
<rect x="104.1" y="6.4" width="0.8" height="0.4"/>
<rect x="104.1" y="5.1" width="0.8" height="0.4"/>
<rect x="104.1" y="3.8" width="0.8" height="0.4"/>
<rect x="104.1" y="2.5" width="0.8" height="0.4"/>
<rect x="104.1" y="1.3" width="0.8" height="0.4"/>
<rect x="104.1" y="16.5" class="st0" width="0.8" height="0.4"/>
<rect x="104.1" y="17.8" class="st0" width="0.8" height="0.4"/>
<rect x="104.1" y="19.1" class="st0" width="0.8" height="0.4"/>
<rect x="104.1" y="20.3" class="st0" width="0.8" height="0.4"/>
<rect x="104.1" y="21.6" class="st0" width="0.8" height="0.4"/>
<rect x="104.1" y="22.9" class="st0" width="0.8" height="0.4"/>
<rect x="104.1" y="24.1" class="st0" width="0.8" height="0.4"/>
<rect x="104.1" y="25.4" class="st0" width="0.8" height="0.4"/>
<rect x="104.1" y="26.7" class="st0" width="0.8" height="0.4"/>
<rect x="104.1" y="28" class="st0" width="0.8" height="0.4"/>
<rect x="104.1" y="29.2" class="st0" width="0.8" height="0.4"/>
<rect x="106.1" y="14" width="0.8" height="0.4"/>
<rect x="106.1" y="12.7" width="0.8" height="0.4"/>
<rect x="106.1" y="11.4" width="0.8" height="0.4"/>
<rect x="106.1" y="10.2" width="0.8" height="0.4"/>
<rect x="106.1" y="8.9" width="0.8" height="0.4"/>
<rect x="106.1" y="7.6" width="0.8" height="0.4"/>
<rect x="106.1" y="6.4" width="0.8" height="0.4"/>
<rect x="106.1" y="5.1" width="0.8" height="0.4"/>
<rect x="106.1" y="16.5" class="st0" width="0.8" height="0.4"/>
<rect x="106.1" y="17.8" class="st0" width="0.8" height="0.4"/>
<rect x="106.1" y="19.1" class="st0" width="0.8" height="0.4"/>
<rect x="106.1" y="20.3" class="st0" width="0.8" height="0.4"/>
<rect x="106.1" y="21.6" class="st0" width="0.8" height="0.4"/>
<rect x="106.1" y="22.9" class="st0" width="0.8" height="0.4"/>
<rect x="106.1" y="24.1" class="st0" width="0.8" height="0.4"/>
<rect x="106.1" y="25.4" class="st0" width="0.8" height="0.4"/>
<rect x="108.1" y="14" width="0.8" height="0.4"/>
<rect x="108.1" y="12.7" width="0.8" height="0.4"/>
<rect x="108.1" y="11.4" width="0.8" height="0.4"/>
<rect x="108.1" y="10.2" width="0.8" height="0.4"/>
<rect x="108.1" y="8.9" width="0.8" height="0.4"/>
<rect x="108.1" y="16.5" class="st0" width="0.8" height="0.4"/>
<rect x="108.1" y="17.8" class="st0" width="0.8" height="0.4"/>
<rect x="108.1" y="19.1" class="st0" width="0.8" height="0.4"/>
<rect x="108.1" y="20.3" class="st0" width="0.8" height="0.4"/>
<rect x="108.1" y="21.6" class="st0" width="0.8" height="0.4"/>
<rect x="110.1" y="14" width="0.8" height="0.4"/>
<rect x="110.1" y="12.7" width="0.8" height="0.4"/>
<rect x="110.1" y="16.5" class="st0" width="0.8" height="0.4"/>
<rect x="110.1" y="17.8" class="st0" width="0.8" height="0.4"/>
<rect x="112.2" y="14" width="0.8" height="0.4"/>
<rect x="112.2" y="12.7" width="0.8" height="0.4"/>
<rect x="112.2" y="11.4" width="0.8" height="0.4"/>
<rect x="112.2" y="16.5" class="st0" width="0.8" height="0.4"/>
<rect x="112.2" y="17.8" class="st0" width="0.8" height="0.4"/>
<rect x="112.2" y="19.1" class="st0" width="0.8" height="0.4"/>
<rect x="114.2" y="14" width="0.8" height="0.4"/>
<rect x="114.2" y="16.5" class="st0" width="0.8" height="0.4"/>
<rect x="116.2" y="14" width="0.8" height="0.4"/>
<rect x="116.2" y="12.7" width="0.8" height="0.4"/>
<rect x="116.2" y="11.4" width="0.8" height="0.4"/>
<rect x="116.2" y="10.2" width="0.8" height="0.4"/>
<rect x="116.2" y="16.5" class="st0" width="0.8" height="0.4"/>
<rect x="116.2" y="17.8" class="st0" width="0.8" height="0.4"/>
<rect x="116.2" y="19.1" class="st0" width="0.8" height="0.4"/>
<rect x="116.2" y="20.3" class="st0" width="0.8" height="0.4"/>
<rect x="118.2" y="14" width="0.8" height="0.4"/>
<rect x="118.2" y="12.7" width="0.8" height="0.4"/>
<rect x="118.2" y="16.5" class="st0" width="0.8" height="0.4"/>
<rect x="118.2" y="17.8" class="st0" width="0.8" height="0.4"/>
<rect x="124.2" y="14" width="0.8" height="0.4"/>
<rect x="124.2" y="16.5" class="st0" width="0.8" height="0.4"/>
<rect x="126.2" y="14" width="0.8" height="0.4"/>
<rect x="126.2" y="12.7" width="0.8" height="0.4"/>
<rect x="126.2" y="11.4" width="0.8" height="0.4"/>
<rect x="126.2" y="16.5" class="st0" width="0.8" height="0.4"/>
<rect x="126.2" y="17.8" class="st0" width="0.8" height="0.4"/>
<rect x="126.2" y="19.1" class="st0" width="0.8" height="0.4"/>
<rect x="128.2" y="14" width="0.8" height="0.4"/>
<rect x="128.2" y="12.7" width="0.8" height="0.4"/>
<rect x="128.2" y="11.4" width="0.8" height="0.4"/>
<rect x="128.2" y="10.2" width="0.8" height="0.4"/>
<rect x="128.2" y="8.9" width="0.8" height="0.4"/>
<rect x="128.2" y="8.9" width="0.8" height="0.4"/>
<rect x="128.2" y="7.6" width="0.8" height="0.4"/>
<rect x="128.2" y="16.5" class="st0" width="0.8" height="0.4"/>
<rect x="128.2" y="17.8" class="st0" width="0.8" height="0.4"/>
<rect x="128.2" y="19.1" class="st0" width="0.8" height="0.4"/>
<rect x="128.2" y="20.3" class="st0" width="0.8" height="0.4"/>
<rect x="128.2" y="21.6" class="st0" width="0.8" height="0.4"/>
<rect x="128.2" y="21.6" class="st0" width="0.8" height="0.4"/>
<rect x="128.2" y="22.9" class="st0" width="0.8" height="0.4"/>
<rect x="130.2" y="14" width="0.8" height="0.4"/>
<rect x="130.2" y="12.7" width="0.8" height="0.4"/>
<rect x="130.2" y="11.4" width="0.8" height="0.4"/>
<rect x="130.2" y="10.2" width="0.8" height="0.4"/>
<rect x="130.2" y="16.5" class="st0" width="0.8" height="0.4"/>
<rect x="130.2" y="17.8" class="st0" width="0.8" height="0.4"/>
<rect x="130.2" y="19.1" class="st0" width="0.8" height="0.4"/>
<rect x="130.2" y="20.3" class="st0" width="0.8" height="0.4"/>
<rect x="132.2" y="14" width="0.8" height="0.4"/>
<rect x="132.2" y="16.5" class="st0" width="0.8" height="0.4"/>
</svg>
