<?xml version="1.0" encoding="utf-8"?>
<!-- Generator: Adobe Illustrator 23.0.4, SVG Export Plug-In . SVG Version: 6.00 Build 0)  -->
<svg version="1.1" id="Layer_1" xmlns="http://www.w3.org/2000/svg" xmlns:xlink="http://www.w3.org/1999/xlink" x="0px" y="0px"
	 viewBox="0 0 453.2 512" style="enable-background:new 0 0 453.2 512;" xml:space="preserve">
<style type="text/css">
	.st0{fill:#FFFFFF;}
</style>
<g>
	<polygon class="st0" points="195.8,230.1 274.6,185.2 195.8,140.4 	"/>
	<path class="st0" d="M226.6,0C91.3,0,0,40.6,0,176.3C0,315.6,145.5,512,226.6,512c81.8,0,226.6-197.3,226.6-335.7
		C453.2,41.1,362.3,0,226.6,0z M371.1,258.3c-3.5,13.1-13.7,22.9-26.7,26.4c-23.5,6.3-117.9,6.3-117.9,6.3s-94.3,0-117.9-6.3
		c-13-3.5-23.2-13.4-26.7-26.4c-6.3-23.7-6.3-73.1-6.3-73.1s0-49.4,6.3-73.1c3.5-13.1,13.7-23.4,26.7-26.8
		c23.5-6.3,117.9-6.3,117.9-6.3s94.3,0,117.9,6.3c13,3.5,23.2,13.8,26.7,26.8c6.3,23.7,6.3,73.1,6.3,73.1S377.4,234.6,371.1,258.3z"
		/>
</g>
</svg>
